<svg xmlns="http://www.w3.org/2000/svg" xmlns:xlink="http://www.w3.org/1999/xlink" version="1.1" id="Capa_1" x="0px" y="0px" viewBox="0 0 492.867 492.867" style="enable-background:new 0 0 492.867 492.867;" xml:space="preserve">
<path style="fill:#fff;" d="M489.979,85.655c-1.823-1.421-4.198-1.923-6.44-1.359l-156.584,39.346L170.157,44.843c-0.065-0.032-0.132-0.058-0.197-0.088  c-0.118-0.055-0.235-0.11-0.356-0.159c-0.095-0.039-0.193-0.071-0.289-0.106c-0.122-0.044-0.244-0.089-0.369-0.127  c-0.113-0.034-0.227-0.059-0.341-0.088c-0.112-0.028-0.222-0.06-0.335-0.083c-0.226-0.045-0.453-0.08-0.682-0.104  c-0.071-0.008-0.144-0.009-0.216-0.014c-0.17-0.013-0.34-0.024-0.51-0.026c-0.024,0-0.048-0.004-0.072-0.004  c-0.066,0-0.13,0.008-0.196,0.01c-0.149,0.004-0.298,0.01-0.447,0.023c-0.106,0.009-0.211,0.022-0.316,0.036  c-0.125,0.016-0.25,0.035-0.375,0.057c-0.117,0.021-0.233,0.045-0.349,0.071c-0.048,0.011-0.097,0.018-0.145,0.03L5.672,84.295  C2.338,85.133,0,88.131,0,91.569v309.729c0,2.311,1.065,4.493,2.888,5.915c1.824,1.421,4.199,1.922,6.44,1.359l156.584-39.346  l156.798,78.798c1.053,0.529,2.207,0.799,3.368,0.799c0.612,0,1.226-0.075,1.828-0.226l159.289-40.025  c3.334-0.838,5.672-3.836,5.672-7.274V91.569C492.867,89.258,491.802,87.076,489.979,85.655z M477.867,395.45l-150.913,37.92  l-156.797-78.798c-1.053-0.529-2.207-0.799-3.368-0.799c-0.612,0-1.226,0.075-1.828,0.226L15,391.681V97.418l144.289-36.257v58.233  c-1.462-1.441-3.504-2.283-5.732-2.142c-7.427,0.466-14.61,1.887-21.35,4.225c-3.913,1.358-5.985,5.63-4.628,9.544  c1.075,3.1,3.979,5.044,7.086,5.044c0.814,0,1.645-0.134,2.458-0.416c5.456-1.893,11.302-3.045,17.373-3.426  c1.88-0.118,3.55-0.924,4.793-2.151V327.5c0,4.142,3.357,7.5,7.5,7.5s7.5-3.358,7.5-7.5V63.707l144.289,72.513v217.354  c-2.795-0.172-5.522-0.466-8.144-0.894c-4.094-0.669-7.943,2.106-8.61,6.194s2.106,7.943,6.194,8.61  c3.405,0.556,6.945,0.913,10.56,1.104v35.709c0,4.142,3.357,7.5,7.5,7.5s7.5-3.358,7.5-7.5v-37.224  c1.856-1.442,3.013-3.727,2.901-6.254c-0.102-2.288-1.223-4.287-2.901-5.59V137.443l144.289-36.256V395.45z M385.903,315.87  l-12.8,12.799c-1.406,1.406-2.196,3.314-2.196,5.303s0.79,3.897,2.197,5.303l17.061,17.06c2.928,2.929,7.677,2.929,10.606,0  l12.799-12.799l12.799,12.799c1.465,1.465,3.384,2.197,5.304,2.197c1.919,0,3.839-0.732,5.303-2.197l17.061-17.06  c1.407-1.406,2.197-3.314,2.197-5.303s-0.79-3.897-2.196-5.303l-12.8-12.799l12.8-12.799c2.929-2.929,2.929-7.678,0-10.606  l-17.061-17.061c-1.407-1.407-3.314-2.197-5.304-2.197s-3.896,0.79-5.304,2.197l-12.799,12.799l-12.799-12.799  c-1.407-1.407-3.314-2.197-5.304-2.197s-3.896,0.79-5.304,2.197l-17.061,17.061c-2.929,2.929-2.929,7.678,0,10.606L385.903,315.87z   M401.813,310.567l-12.8-12.799l6.454-6.454l12.799,12.799c1.407,1.407,3.314,2.197,5.304,2.197s3.896-0.79,5.304-2.197  l12.799-12.799l6.454,6.454l-12.8,12.799c-2.929,2.929-2.929,7.678,0,10.606l12.8,12.799l-6.454,6.454l-12.799-12.799  c-1.465-1.464-3.385-2.197-5.304-2.197s-3.839,0.732-5.304,2.197l-12.799,12.799l-6.454-6.454l12.8-12.799  C404.742,318.244,404.742,313.495,401.813,310.567z M75.973,233.468c-0.941,5.758-1.266,9.326-1.269,9.362  c-0.35,3.897-3.622,6.833-7.462,6.833c-0.223,0-0.447-0.01-0.673-0.03c-4.124-0.367-7.171-4.004-6.807-8.128  c0.015-0.165,0.367-4.098,1.405-10.456c0.668-4.088,4.519-6.863,8.611-6.193C73.867,225.524,76.64,229.38,75.973,233.468z   M249.52,184.556c4.054-0.848,8.028,1.752,8.876,5.808c1.34,6.413,2.194,13.204,2.613,20.762c0.229,4.136-2.938,7.674-7.073,7.903  c-0.141,0.008-0.282,0.012-0.422,0.012c-3.952,0-7.26-3.09-7.481-7.085c-0.377-6.798-1.136-12.857-2.32-18.525  C242.865,189.377,245.465,185.404,249.52,184.556z M114.955,138.761c2.796,3.057,2.584,7.801-0.473,10.596  c-4.255,3.893-8.297,8.5-12.013,13.693c-1.464,2.046-3.768,3.137-6.105,3.137c-1.511,0-3.036-0.455-4.358-1.401  c-3.368-2.41-4.146-7.095-1.735-10.463c4.322-6.042,9.063-11.437,14.089-16.034C107.414,135.493,112.159,135.704,114.955,138.761z   M260.662,241.7c-0.315,5.315-0.712,10.606-1.096,15.722l-0.311,4.158c-0.291,3.943-3.58,6.949-7.472,6.949  c-0.186,0-0.372-0.007-0.56-0.021c-4.131-0.305-7.232-3.9-6.928-8.031l0.312-4.176c0.379-5.059,0.771-10.29,1.079-15.488  c0.245-4.135,3.795-7.29,7.932-7.043C257.754,234.014,260.907,237.565,260.662,241.7z M88.95,187.615  c-2.379,5.601-4.556,11.623-6.471,17.899c-0.986,3.232-3.959,5.313-7.171,5.313c-0.726,0-1.462-0.106-2.191-0.329  c-3.962-1.209-6.194-5.4-4.985-9.362c2.068-6.778,4.428-13.3,7.012-19.385c1.62-3.813,6.025-5.589,9.835-3.972  C88.791,179.399,90.569,183.802,88.95,187.615z M287.906,353.744c-1.441,2.186-3.831,3.372-6.268,3.372  c-1.418,0-2.851-0.401-4.123-1.24c-6.069-4.003-11.551-8.972-16.291-14.767c-2.623-3.206-2.15-7.931,1.056-10.554  c3.204-2.621,7.932-2.15,10.554,1.056c3.782,4.623,8.136,8.574,12.941,11.743C289.232,345.635,290.187,350.286,287.906,353.744z   M255.062,317.57c-0.663,0.182-1.331,0.269-1.986,0.269c-3.296,0-6.316-2.188-7.229-5.52c-1.649-6.018-2.553-13.02-2.763-21.407  c-0.104-4.141,3.17-7.582,7.311-7.685c4.118-0.086,7.582,3.169,7.686,7.31c0.179,7.158,0.909,12.986,2.233,17.817  C261.407,312.349,259.057,316.475,255.062,317.57z M244.298,170.719c-1.244,0.787-2.632,1.163-4.003,1.163  c-2.486,0-4.918-1.235-6.345-3.492c-3.134-4.953-6.98-9.475-11.435-13.441c-3.094-2.754-3.368-7.496-0.614-10.589  c2.755-3.093,7.496-3.368,10.589-0.614c5.499,4.896,10.255,10.49,14.136,16.626C248.841,163.872,247.798,168.505,244.298,170.719z   M209.211,136.801c-1.201,2.88-3.989,4.616-6.926,4.616c-0.962,0-1.939-0.186-2.883-0.579c-2.118-0.883-4.345-1.729-6.619-2.516  c-3.766-1.301-7.502-2.414-11.104-3.307c-4.021-0.996-6.473-5.063-5.477-9.084c0.997-4.021,5.068-6.47,9.084-5.476  c4.037,1,8.207,2.242,12.396,3.689c2.567,0.887,5.087,1.845,7.49,2.847C208.997,128.586,210.805,132.978,209.211,136.801z   M351.236,358.302c-1.136-3.983,1.173-8.133,5.156-9.269c5.374-1.532,8.67-2.867,8.702-2.88c3.831-1.561,8.21,0.275,9.776,4.105  c1.566,3.831-0.262,8.204-4.09,9.775c-0.161,0.066-4.025,1.643-10.275,3.425c-0.688,0.196-1.38,0.29-2.061,0.29  C355.18,363.748,352.177,361.598,351.236,358.302z"/>
<g>
</g>
<g>
</g>
<g>
</g>
<g>
</g>
<g>
</g>
<g>
</g>
<g>
</g>
<g>
</g>
<g>
</g>
<g>
</g>
<g>
</g>
<g>
</g>
<g>
</g>
<g>
</g>
<g>
</g>
</svg>
