<svg xmlns="http://www.w3.org/2000/svg" xmlns:xlink="http://www.w3.org/1999/xlink" version="1.1" id="Capa_1" x="0px" y="0px" viewBox="0 0 477.4 477.4" style="enable-background:new 0 0 477.4 477.4;" xml:space="preserve">
<path style="fill:#fff;" d="M469.9,301.017h-27.2H301.9c-0.365,0-0.721,0.035-1.072,0.085c-0.072,0.01-0.144,0.021-0.216,0.033  c-0.348,0.06-0.688,0.14-1.017,0.247c-0.03,0.01-0.058,0.022-0.088,0.032c-0.315,0.106-0.62,0.234-0.915,0.38  c-0.047,0.023-0.094,0.043-0.141,0.068c-0.304,0.158-0.595,0.336-0.873,0.532c-0.053,0.037-0.103,0.077-0.154,0.115  c-0.259,0.193-0.506,0.399-0.738,0.623c-0.022,0.021-0.046,0.04-0.067,0.061c-0.241,0.24-0.461,0.499-0.669,0.77  c-0.045,0.059-0.09,0.118-0.133,0.178c-0.201,0.279-0.387,0.57-0.549,0.877c-0.017,0.032-0.031,0.066-0.047,0.098  c-0.157,0.308-0.292,0.628-0.406,0.958c-0.008,0.025-0.022,0.046-0.03,0.071c-4.933,14.798-16.929,25.533-32.166,29.617v-47.185  h56.5c3.256,0,6.14-2.1,7.139-5.199l4.155-12.892c11.266-34.941,11.266-71.878,0.001-106.819l-4.156-12.892  c-0.999-3.099-3.883-5.199-7.139-5.199h-58.501v-18.556H276.3c4.143,0,7.5-3.358,7.5-7.5s-3.357-7.5-7.5-7.5h-15.683v-2.231  l46.369-17.658c2.969-1.13,4.903-4.008,4.829-7.184s-2.142-5.96-5.159-6.951l-51.2-16.803c-2.287-0.75-4.791-0.358-6.738,1.052  c-1.947,1.411-3.101,3.669-3.101,6.074v36.128c-0.003,0.115-0.003,0.231,0,0.347v7.226H231.5c-4.142,0-7.5,3.358-7.5,7.5  s3.358,7.5,7.5,7.5h14.118v18.556h-54.499c-2.398,0-4.651,1.146-6.063,3.084c-1.412,1.938-1.812,4.435-1.076,6.717l4.156,12.892  c1.988,6.167,3.588,12.402,4.808,18.679c0.037,0.298,0.094,0.589,0.165,0.875c4.894,25.946,3.241,52.583-4.973,78.06l-4.156,12.892  c-0.736,2.282-0.336,4.778,1.076,6.717c1.412,1.938,3.665,3.084,6.063,3.084h56.5v49H168.6V106.722v-25.6c0-4.142-3.358-7.5-7.5-7.5  s-7.5,3.358-7.5,7.5v23.572L65.021,256.543c-1.353,2.319-1.363,5.186-0.025,7.514c1.337,2.329,3.818,3.765,6.503,3.765h82.1v69.756  h-20.277c-10.258,0-19.17-6.892-21.765-16.793l-7.068-40.981c-0.62-3.598-3.74-6.226-7.391-6.226H81.4H20.3H7.5  c-4.142,0-7.5,3.358-7.5,7.5s3.358,7.5,7.5,7.5h7.22l7.541,25.136c0.006,0.021,0.012,0.042,0.019,0.063l29.237,97.456  c0.952,3.172,3.872,5.345,7.184,5.345h320c2.564,0,4.95-1.31,6.327-3.473l61.79-97.088H469.9c4.143,0,7.5-3.358,7.5-7.5  S474.042,301.017,469.9,301.017z M260.618,78.677l21.247,6.973l-21.247,8.091V78.677z M202.413,270.488  c8.099-25.119,10.375-51.27,6.83-76.969H296.9c4.143,0,7.5-3.358,7.5-7.5s-3.357-7.5-7.5-7.5h-90.411  c-1.139-4.982-2.492-9.936-4.076-14.85l-0.996-3.09h112.24l2.48,7.693c10.294,31.93,10.294,65.684,0,97.614l-2.48,7.693h-112.24  L202.413,270.488z M84.558,252.822L153.6,134.464v118.358H84.558z M374.583,401.578H64.28l-24.767-82.556H75.9  c4.142,0,7.5-3.358,7.5-7.5s-3.358-7.5-7.5-7.5H35.013l-4.633-15.444H81.4h9.382l6.045,35.05c0.032,0.183,0.07,0.365,0.115,0.544  c4.181,16.725,19.141,28.405,36.38,28.405h115.299c26.29,0,48.646-14.176,58.423-36.561h121.991L374.583,401.578z"/>
<g>
</g>
<g>
</g>
<g>
</g>
<g>
</g>
<g>
</g>
<g>
</g>
<g>
</g>
<g>
</g>
<g>
</g>
<g>
</g>
<g>
</g>
<g>
</g>
<g>
</g>
<g>
</g>
<g>
</g>
</svg>
